/* XPM */
static char *a341f48e70b141a5f581c24fb74df9c5qhDZ64U3u8HVTsdR[] = {
/* columns rows colors chars-per-pixel */
"64 64 126 2 ",
"   c None",
".  c #1C1623",
"X  c #1E1925",
"o  c #1F1728",
"O  c #1F1A28",
"+  c #201A26",
"@  c #221B2A",
"#  c #27222A",
"$  c #282230",
"%  c #2F2935",
"&  c #332C36",
"*  c #352E39",
"=  c #392E3B",
"-  c #36313B",
";  c #3A323D",
":  c #3D3642",
">  c #3F3944",
",  c #413C46",
"<  c #433E4A",
"1  c #46414B",
"2  c #4C454E",
"3  c #4B4650",
"4  c #4C4851",
"5  c #534F55",
"6  c #574F59",
"7  c #55535A",
"8  c #5B525A",
"9  c #60555B",
"0  c #61595F",
"q  c #5F5B63",
"w  c #645B62",
"e  c #6A5F66",
"r  c #6C6367",
"t  c #66656A",
"y  c #6B636B",
"u  c #71646D",
"i  c #726D74",
"p  c #737277",
"a  c #787075",
"s  c #767479",
"d  c #7B797F",
"f  c #7D7A80",
"g  c #837E84",
"h  c #8D8285",
"j  c #868589",
"k  c #89888D",
"l  c #918586",
"z  c #928589",
"x  c #968B8A",
"c  c #998C8C",
"v  c #9B908F",
"b  c #908F93",
"n  c #9A8E91",
"m  c #939195",
"M  c #9C9292",
"N  c #97959B",
"B  c #9F9598",
"V  c #9F999B",
"C  c #A19697",
"Z  c #A09896",
"A  c #A09798",
"S  c #A19A9C",
"D  c #A6A09F",
"F  c #9E9FA2",
"G  c #A6A1A1",
"H  c #A9A4A5",
"J  c #A6A6A8",
"K  c #AAA5A8",
"L  c #ABABAD",
"P  c #B1AFAF",
"I  c #AFB0AE",
"U  c #AFAEB1",
"Y  c #B2AFB1",
"T  c #B4B3B4",
"R  c #BAB5B4",
"E  c #B6B7B9",
"W  c #B8B7BA",
"Q  c #B6B8BA",
"!  c #B9BABC",
"~  c #C0C1C3",
"^  c #C4C3C2",
"/  c #C1C3C5",
"(  c #C2C2C6",
")  c #C4C2C4",
"_  c #C3C6C7",
"`  c #C4C5C6",
"'  c #C5C7C9",
"]  c #C6C7C9",
"[  c #CBC8C8",
"{  c #CBCACA",
"}  c #CBCACB",
"|  c #C9CACC",
" . c #CACCCC",
".. c #CBCCCC",
"X. c #CACCCD",
"o. c #CCCDCD",
"O. c #CCCECD",
"+. c #CCCDCE",
"@. c #D0CFCF",
"#. c #CFCED0",
"$. c #D0CFD0",
"%. c #D0D0D0",
"&. c #D2D1D1",
"*. c #D3D2D1",
"=. c #D1D2D3",
"-. c LightGray",
";. c #D2D5D2",
":. c #D4D4D3",
">. c #D5D7D4",
",. c #D4D6D5",
"<. c #D5D6D6",
"1. c #D5D7D6",
"2. c #D7D7D6",
"3. c #D3D8D8",
"4. c #DBDDDD",
"5. c #DCDFDC",
"6. c #DCDEDD",
"7. c #DDDFDD",
"8. c #DCDEDE",
"9. c #DDDEDE",
"0. c #DEE0DC",
"q. c #DEE0DD",
"w. c #DEE1DE",
"e. c #DDE2DF",
"r. c #DCDFE0",
"t. c #FBFFFE",
/* pixels */
"                                                                                                                                ",
"                                                                                                                                ",
"                                                                                                                                ",
"                                                                                                                                ",
"                                                                                                                                ",
"                                                                                                                                ",
"                                                                                                                                ",
"                                                                                                                                ",
"                                                                                                                                ",
"                                                                                                                                ",
"                                                                                                                                ",
"                                                                                                                                ",
"                                                                                                                                ",
"                                                                                                                                ",
"                                                                                                                                ",
"                                                                                                                                ",
"                                                                                                                                ",
"                                                      . X X X X O X                                                             ",
"                                                      + @ @ @ @ @ @                                                             ",
"                                                      X @ @                                                                     ",
"                                                      X @             O X                                                       ",
"                                                      X @             @ @                                                       ",
"                                                      + @             @ @ @ O O + .                                             ",
"                                                      X X             @ @ @ @ + + .                                             ",
"                                                    ; g j b c M @.7.m 0 w g j j j j ,                                           ",
"                              @ @ + X             X - } e.R x M *.4.! x M *.7.7.7.*., X X                                       ",
"                              @ $ > >           - - 4 ) :.R v Z } *.R v M  .2.2.2.O.7 - -                                       ",
"                            + + < ( #.p . X X . f } ) S M K T T S M G T T ! ! ! ! ! ` | b . .                                   ",
"                            - X 1 *.e.p . X @ X g e.*.M x H Q T M x D Q E ! ! Q E ! 2.e.N o .                                   ",
"                            2 + < ~  .F d s 0 8 m  .^ M x K Q T M x G Q T p t k E Q ]  .U f d 1                                 ",
"                            q X > U E O.r.;.M c H Q T M x K Q T M x G Q L * . q ! E T T _ 7.2.2 X .                             ",
"                            i X > L T ] 3.O.C c G T P M c K T I M x G Q L 1 % y ! E E E ( 2.$.3 O X                             ",
"                          t.d X ; x M L ! ! T T D v M Y T H v v c x G Q E J J L E E E E ! ! E 1 O X                             ",
"                            i X ; l x K Q Q Q ! G x v T ! H x x x x G Q E Q Q Q E E E E E Q T 1 O X                             ",
"                            7 X : S G H K K K K G G G K K K G G n x G Q E E E E E E Q Q T K G , + X                             ",
"                            1 + , T ! D x x x x G Q T M x H ! T M x G Q E E E E E E E Q K c z ; + X                             ",
"                            # + > U T S h h l h S E T M x H Q T M x G Q E E E E E E T T H h h ; .                               ",
"                            @ + ; c M w & * * & r M M c x K Q T M x G Q E E E E Q T V M a * &                                   ",
"                            1 + ; x n 6 X @ @ X 9 v c x x K ! T M x G ! W W W W Q E B v u @ X                                   ",
"                            & @ & w w 2         2 w e z x S K G n x A K K K K K K G i w 8                                       ",
"                            X @ @ @ @             X & h c x x x x x x x x x x x c h = @ X                                       ",
"                              X X X X             X % g l x c x x x x l z l l l l h * X                                         ",
"                                                      & * y c c x c r * ; - - - ; -                                             ",
"                                                      . O w v c c M w X @ @ @ @ @ X                                             ",
"                                                      X @ 2 r r r r 5 . . X X X +                                               ",
"                                                      X @ @ @ @ @ @                                                             ",
"                                                      . + + + + + X                                                             ",
"                                                                                                                                ",
"                                                                                                                                ",
"                                                                                                                                ",
"                                                                                                                                ",
"                                                                                                                                ",
"                                                                                                                                ",
"                                                                                                                                ",
"                                                                                                                                ",
"                                                                                                                                ",
"                                                                                                                                ",
"                                                                                                                                ",
"                                                                                                                                ",
"                                                                                                                                ",
"                                                                                                                                ",
"                                                                                                                                ",
"                                                                                                                                ",
"                                                                                                                                "
};
