/* XPM */
static char *a486f97123354781b14aa8a653799f91tdzBn8y800tHMYQX[] = {
/* columns rows colors chars-per-pixel */
"64 64 151 2 ",
"   c None",
".  c #17151A",
"X  c #1A1719",
"o  c #1F1918",
"O  c #251B14",
"+  c #2A1E14",
"@  c #3B240E",
"#  c #3F290F",
"$  c #2B2015",
"%  c #2E2019",
"&  c #332413",
"*  c #3B2714",
"=  c #352916",
"-  c #3E2911",
";  c #34271A",
":  c #3F3217",
">  c #3F3219",
",  c #452B0D",
"<  c #4B2B0A",
"1  c #552E06",
"2  c #592F04",
"3  c #502D09",
"4  c #4D320E",
"5  c #5D3203",
"6  c #55350D",
"7  c #5A360A",
"8  c #533A0E",
"9  c #5B3C0D",
"0  c #453415",
"q  c #4A3714",
"w  c #4C3A14",
"e  c #433018",
"r  c #503610",
"t  c #533D13",
"y  c #593C10",
"u  c #623402",
"i  c #683703",
"p  c #663C07",
"a  c #6C3D04",
"s  c #613A09",
"d  c #683D08",
"f  c #723F02",
"g  c #564116",
"h  c #584216",
"j  c #6C4005",
"k  c #65460E",
"l  c #68470D",
"z  c #65490F",
"x  c #6B4C0D",
"c  c #764303",
"v  c #7B4600",
"b  c #7C4801",
"n  c #72520D",
"m  c #79560C",
"M  c #7D5A0D",
"N  c #614710",
"B  c #654911",
"V  c #6A4C10",
"C  c #6F5010",
"Z  c #805B0E",
"A  c #815D0C",
"S  c #815C0D",
"D  c #815C0E",
"F  c #835D0A",
"G  c #8F6607",
"H  c #8A6108",
"J  c #886209",
"K  c #8B610B",
"L  c #89620A",
"P  c #88610C",
"I  c #906606",
"U  c #916706",
"Y  c #916607",
"T  c #906707",
"R  c #916707",
"E  c #936806",
"W  c #956905",
"Q  c #966904",
"!  c #946906",
"~  c #936806",
"^  c #9F6F03",
"/  c #996B05",
"(  c #9A6B05",
")  c #986B07",
"_  c #996C04",
"`  c #986C05",
"'  c #996C05",
"]  c #9B6D05",
"[  c #9A6C06",
"{  c #9D6F05",
"}  c #9F6F04",
"|  c #9D6E06",
" . c #9C6F07",
".. c #9B6E05",
"X. c #906608",
"o. c #916708",
"O. c #916709",
"+. c #926708",
"@. c #926709",
"#. c #91670A",
"$. c #916709",
"%. c #916809",
"&. c #926808",
"*. c #936808",
"=. c #936908",
"-. c #926808",
";. c #9F7005",
":. c #9C7006",
">. c #9E7006",
",. c #9E7005",
"<. c #A37202",
"1. c #A27303",
"2. c #A37303",
"3. c #A57300",
"4. c #A47301",
"5. c #A57301",
"6. c #A67300",
"7. c #A57202",
"8. c #A47302",
"9. c #A47203",
"0. c #A47303",
"q. c #A37403",
"w. c #A57400",
"e. c #A47401",
"r. c #A57401",
"t. c #A67400",
"y. c #A77500",
"u. c #A67401",
"i. c #A67501",
"p. c #A77501",
"a. c #A47402",
"s. c #A57402",
"d. c #A47403",
"f. c #A67402",
"g. c #A67502",
"h. c #A77502",
"j. c #A67403",
"k. c #A77403",
"l. c #A67503",
"z. c #A37204",
"x. c #A27304",
"c. c #A37304",
"v. c #A27205",
"b. c #A37205",
"n. c #A47304",
"m. c #A57304",
"M. c #A77504",
"N. c #A57301",
"B. c #A87501",
"V. c #A87502",
"C. c #A87500",
/* pixels */
"                                                                                                                                ",
"                                                                                                                                ",
"                                                                                                                                ",
"                                                                                                                                ",
"                                                                                                                                ",
"                                                                                                                                ",
"                                                                                                                                ",
"                                                                                                                                ",
"                                                                                                                                ",
"                                                                                                                                ",
"                                                                                                                                ",
"                                                                                                                                ",
"                                                                                                                                ",
"                                                                                                                                ",
"                                                                                                                                ",
"                                                                                                                                ",
"                                                                                                                                ",
"                                              ; t C e                       t n B =                                             ",
"                                        > t V Y ( 9.E x q               t M _ u.^ Y M t w                                       ",
"                                  & t n F c.9.u.9.9.u.9.=.n 0       t m { u.u.9.9.u.9.<.X.n B =                                 ",
"                              t x X.( B.u.9.9.9.9.9.u.9.9.F N 0 X w =.u.u.9.9.9.9.9.9.9.u.B.^ Y M 8 w                           ",
"                        : N F c.9.u.u.9.9.9.9.u.B._ Y x 8 6 7 p < , 8 9 H W 9.u.9.9.u.9.9.9.u.u.u.( V .                         ",
"                          0 n X.m.u.9.u.u.c.c.F n 9 4 9 a c b c i u 1 1 , , x m { u.u.u.9.u.u.{ m t                             ",
"                              q x =.u.( X.V t 6 7 a c c b c c c i u u u u 5 < , 8 9 K W 9._ M t                                 ",
"                                  = B y 4 s a c b b c b b b b c i u u u u u u u 1 1 , < x 0                                     ",
"                                  . O 6 a c b b c c c c b b b c i u u u u u u u u u 1 < $ X                                     ",
"                                  t P x 8 6 7 j c c b c c b b c i u u u u u 5 5 < < r 9 K z q                                   ",
"                                M <.u.9.c.F n 9 4 s a c b b b c i u u u 1 1 , , x m ;.9.u.u.X.t                                 ",
"                              S 9.u.9.9.u.u.u._ Y x 8 6 7 j c c u 5 < , 4 9 K W u.u.u.9.9.9.u.X.t                               ",
"                            A q.9.9.9.9.9.9.9.u.u.9.<.F n 9 , 6 # , x m { 9.u.u.9.9.9.9.9.9.9.u.=.h                             ",
"                          A 9.u.9.9.9.9.9.9.9.9.9.9.9.u.B.=.t O - A u.u.u.9.9.9.9.9.9.9.9.9.9.u.u.X.g                           ",
"                        V ;.B.u.9.9.9.9.9.9.9.9.9.9.9.u.;.l 3 @ < 8 Y u.9.9.9.9.9.9.9.9.9.u.u._ G x -                           ",
"                        & z n X.9.9.u.9.9.9.9.9.9.9.u.;.l 3 u @ 1 1 8 X.u.9.9.9.9.u.u.9.9.{ m t &                               ",
"                              q t M E ;.B.u.9.9.9.u.;.l 3 u u @ u u 1 8 X.u.9.u.u._ X.x 8 q                                     ",
"                                  $ # k n Y 9.9.u.;.l 3 u u a , a a u 1 8 X.c.F n 8 , < 1 +                                     ",
"                                  O 1 < , 4 8 m E l < u u a c , j c a u 1 4 8 < , 1 5 u u &                                     ",
"                                  O 5 i u 5 1 < , < u u a c c , j b c a u 2 1 5 u i i c c -                                     ",
"                                  + a c f i i u 5 u u a c b c , j b c c f i i a c c c c c -                                     ",
"                                  + a b c c c f i i a c b b c , j b c c c c c c c b c c c #                                     ",
"                                  + a b c c b b c c c c b b c , j b c c b b b b b b c c c ,                                     ",
"                                  + a b c c b b c c b b b b c , j b c c b b b b b b c c c ,                                     ",
"                                  + a b c c b b c c c b b b c , j b c c b b b b b b c b c ,                                     ",
"                                  + a b c c c b c c b b b b c , j b b c b b c c b b c c c ,                                     ",
"                                  + a b c c c c c c b b b b c , j b b b b b c c c b c c c ,                                     ",
"                                  + j b b c c c c b b b b b c , j b b b b c c c c c c c c #                                     ",
"                                  + s c b c c c c b b b c c c , j b c b b b c c c c b c j -                                     ",
"                                    $ 4 7 j c c b b b b c c c , j b c c b b b b c c 7 6 &                                       ",
"                                          * , s j c b b c c c , j b c c b b c d < -                                             ",
"                                                + 4 7 j c c c , j b c c 7 6 & +                                                 ",
"                                                      * , 9 a - s a , -                                                         ",
"                                                            $ o + %                                                             ",
"                                                                                                                                ",
"                                                                                                                                ",
"                                                                                                                                ",
"                                                                                                                                ",
"                                                                                                                                ",
"                                                                                                                                ",
"                                                                                                                                ",
"                                                                                                                                ",
"                                                                                                                                ",
"                                                                                                                                ",
"                                                                                                                                ",
"                                                                                                                                ",
"                                                                                                                                "
};
