/* XPM */
static char *result[] = {
/* columns rows colors chars-per-pixel */
"64 64 109 2 ",
"   c #C0D470",
".  c #C1D470",
"X  c #BFD36F",
"o  c #BCD26E",
"O  c #BFD370",
"+  c #C1D571",
"@  c #BCD16E",
"#  c #B1CA69",
"$  c #BBD16E",
"%  c #B1CB69",
"&  c #BFD470",
"*  c #BDD26F",
"=  c #B7CE6C",
"-  c #ACC767",
";  c #ADC867",
":  c #BAD06D",
">  c #B3CB6A",
",  c #AFC968",
"<  c #B8CF6C",
"1  c #B9CF6D",
"2  c #AAC666",
"3  c #B9D06D",
"4  c #C1D570",
"5  c #A9C565",
"6  c #BED26F",
"7  c #BED36F",
"8  c #B3CC6A",
"9  c #BDD26E",
"0  c #B6CE6C",
"q  c #B5CD6B",
"w  c #ABC666",
"e  c #ABC766",
"r  c #B4CD6B",
"t  c #B4CC6A",
"y  c #B2CB69",
"u  c #B0CA69",
"i  c #B6CE6B",
"p  c #B2CB6A",
"a  c #BFD36E",
"s  c #C2D572",
"d  c #C5D777",
"f  c #C1D572",
"g  c #C0D46F",
"h  c #BFD46F",
"j  c #C7D97A",
"k  c #D5E28F",
"l  c #D4E18E",
"z  c #C5D778",
"x  c #C9DA7D",
"c  c #DBE597",
"v  c #DCE698",
"b  c #CCDC82",
"n  c #C4D776",
"m  c #CDDC82",
"M  c #D3E18C",
"N  c #D8E493",
"B  c #C3D675",
"V  c #CADA7E",
"C  c #BED36E",
"Z  c #D3E08B",
"A  c #D3E08C",
"S  c #C6D879",
"D  c #C4D675",
"F  c #CEDD84",
"G  c #C0D471",
"H  c #C2D573",
"J  c #CCDC81",
"K  c #DDE799",
"L  c #D1DF88",
"P  c #D6E290",
"I  c #D5E28E",
"U  c #CFDE86",
"Y  c #C1D471",
"T  c #DEE79B",
"R  c #DEE89C",
"E  c #CBDB80",
"W  c #C6D878",
"Q  c #D1DF89",
"!  c #BED36D",
"~  c #CBDB7F",
"^  c #E0E99F",
"/  c #E0E99E",
"(  c #DCE699",
")  c #CADB7F",
"_  c #DFE89D",
"`  c #C5D878",
"'  c #D6E390",
"]  c #D5E18E",
"[  c #C9DA7C",
"{  c #C9DA7E",
"}  c #CFDE85",
"|  c #CEDD85",
" . c #C2D674",
".. c #C3D674",
"X. c #DBE698",
"o. c #D8E393",
"O. c #C4D676",
"+. c #C4D777",
"@. c #CDDD83",
"#. c #CDDC83",
"$. c #DDE79A",
"%. c #DBE697",
"&. c #C8DA7C",
"*. c #D4E18C",
"=. c #C7D879",
"-. c #D4E18D",
";. c #DFE89E",
":. c #D6E28F",
">. c white",
/* pixels */
"                                                                                                                                ",
"                                                                                                                                ",
"                                                                                                                                ",
"                                                                                                                                ",
"                                            . .                                                 . .     . .                     ",
"                                          X o o X                                             X o o O O o o X                   ",
"                                      . + @ # # $                                             $ # % o o % # $                   ",
"                                      & * = - ; : .                                         . : ; ; = = ; ; : .                 ",
"                                      @ > , > < *                                             * < > , , > < *                   ",
"                                    . 1 2 2 1                                                     3 ; ; 3                       ",
"            4 4                     . < 5 5 3 + .                                               4 6 = = 6 4                     ",
"          & 7 7 &                   . : - - : .                                                     & &                         ",
"          @ 8 8 9 + .                 * 0 0 *                                                       . .                         ",
"        . : ; - < X                     O O                                                                                     ",
"          9 q # # q o               . 4 4 .                                                                                     ",
"            & < w e 3 .             X X                                                                                         ",
"          . + 3 5 5 < .         + * q r o                                                                                       ",
"            . 3 e e 3 .           1 - ; : .                                                                                     ",
"              o t t o         * 0 y u t @                               . .     . .                                             ",
"              & 7 7 &       . 3 - e < X                                 & &     & &                                             ",
"                4 4         . < 5 5 3 + .                             9 i 0 7 7 0 i 9                                           ",
"                            . 1 2 2 1 .                             . : ; ; : : ; ; : .                                         ",
"                              @ > > @                                 @ p , > > , p @                                           ",
"                              O * * O                                 & 6 = - - = 6 &                                           ",
"                                . .                                   . + @ % % @ + .                                           ",
"                                                                          O 9 9 O                                               ",
"                                                                            . .                                                 ",
"                                                                                                                                ",
"                                                                                                                                ",
"                                                                                                                                ",
"                                                                                                                                ",
"                                                                                                                                ",
"                                                                                                                                ",
"                                                                                                                                ",
"                                                                                                                                ",
"                                                                                                                                ",
"                                                                                                                                ",
"                                                                                                        a X     X a             ",
"                                                                                                      s d d f f d d s           ",
"                                                                                                  g h j k l z z l k j h g       ",
"                                                                                                  h X x c v b b v c x X h       ",
"                      g a a g                                                                       g n m M N N M m n g         ",
"                      f B B f                                                                             V v v V               ",
"                  h C d Z A S h g                                                                     h a D F F D a h           ",
"                  G H J K v x X h                                                                           + +                 ",
"      g a a g   g z L P I U d g                                                                             X X                 ",
"      Y H H Y h X V T R E G                                                                                                     ",
"    h W Q L n ! C ~ ^ / V ! X                                                                                                   ",
"  h X x v ( E   X ) _ _ ) X h                                                                                                   ",
"    h ` Q ' ] F D ) / ^ ~ X h       a a                                                                                         ",
"        s J T ( [ x T R V X h     G f f G                                                                                       ",
"      X ! { / ^ ) d L Q W h     g d } | n a h                               X X     X X                                         ",
"      h X ) _ _ )    ...+     h X x X.v V                                   Y Y     Y Y                                         ",
"      h X ~ ^ ^ ~ a ! a g     g h S M o.A b O.g                         g +.F @.B B @.F +.g                                     ",
"      h X ) _ _ ) X h             Y ..#.$.X.x X h                     h X x %.c &.&.c %.x X h                                   ",
"      g h S *.*.S h g             X ! { / ^ ~ X h                     g h =.-.N Z Z N -.=.h g                                   ",
"          f n n f                 h a ) ;.;.) X h                         + D @.( ( @.D +                                       ",
"          g a a g                 h X ) / / ) X h                         h C S k k S C h                                       ",
"                                  h X ) ;.;.) X h                           g s z z s g                                         ",
"                                  g h j :.:.j h g                               X X                                             ",
"                                      H S S H                                                                                   ",
"                                        X X                                                                                     ",
"                                        g g                                                                                     ",
"                                                                                                                                "
};
