/* XPM */
static char *result[] = {
/* columns rows colors chars-per-pixel */
"64 64 55 1 ",
"  c #905E5D",
". c #8E615D",
"X c #946D5B",
"o c #9D6E5F",
"O c #867E5B",
"+ c #9D705F",
"@ c #A37E59",
"# c #AC7B5A",
"$ c #A67960",
"% c #769F57",
"& c #7E9C58",
"* c #76A058",
"= c #79A258",
"- c #8F8F59",
"; c #9B8759",
": c #938B58",
"> c #819657",
", c #849758",
"< c #899158",
"1 c #A5805A",
"2 c #AD835D",
"3 c #B2815E",
"4 c #85AC5B",
"5 c #88AD5C",
"6 c #8DB15D",
"7 c #93B55F",
"8 c #93B85F",
"9 c #B58761",
"0 c #B68962",
"q c #BA8D64",
"w c #B79364",
"e c #BC9166",
"r c #B89C65",
"t c #BF9368",
"y c #9EBD62",
"u c #BAA467",
"i c #BEA269",
"p c #BAAA68",
"a c #A0BF62",
"s c #BCB56A",
"d c #BDBB6B",
"f c #C09669",
"g c #C49A6C",
"h c #C4AA6E",
"j c #C1BA6E",
"k c #A4C263",
"l c #A9C565",
"z c #ADC867",
"x c #AEC968",
"c c #B4CC6B",
"v c #BACE6D",
"b c #BDD26E",
"n c #BFD470",
"m c #C0D470",
"M c None",
/* pixels */
"MMMMMMMM=*%%=%%%*******=*=*==*=***%&===*======%%=%&=====MMMMMMMM",
"MMMMMM=**%4774%%**4777777777=%=%=587*=%=785%%%488777=%%%=*MMMMMM",
"MMMMM*%%557kay55547kkklkklka644458lk5446kl86447kkkkk6444=%=MMMMM",
"MMMM=**4akkkakkkkllklkkkkkkkklllkllkkkkkkkkkkkklkkkkkkka4**=MMMM",
"MMM*=*4akkkkkkkkbbbbbxkkkkzbbbbbbbckkkkkkkkkkcbbbzkkkkkka5%%*MMM",
"MMM=*5ykkklvvccvmmnmmbcccvbmmmmmmmmcvccvccccvbmmmbcckkkkay5%=MMM",
"MM*=5ykkklcmmmmmmmmmmmmmmmmmmmmmmmmmmmmmmmmmmmmmmmmmxlkkkky4==MM",
"M**=akkkkcmmmmmmmbbmmmmmmmmmmbmmbmmmmmmmmmmmmmmmmmmmmxklkkay4**M",
"M%%48kkkkvczbmmmmcxmmmmmmmmbzvmblcmmmmmmmmmmmmmmmmmmmnbvkkka=%%M",
"M%48kkkkcbbvbmmmmvcmmmmmmmmncbmvcmmmmmmmmmmmmxcmmmmmmmmnvxky4%*M",
"M%6llkklbmmmmmmmmmmmmmmmmmmmmmmmmmmmmmmmmmmmmccmmnnnmvcmmzaa7=*M",
"M%58kkklbmmmmmmmmmmmmmmmmmmmmmmmmmmmmmmmmmmmmmmmmmnnnccmmckkk5%M",
"M**4kkklbmmmmmmmmmmmmmmmmmmmmmmmmmmmmmmmmmmmmmmmmmmmmbnmmxkkk5%M",
"M**=8kklbmmmmmmmnmmmmmmmmmmmmmmmmmmmmmbxbmmmmmmmmmmmmmnnmxakk5%M",
"M**4klklbmmmmmmmmmmmmvcmmmmmmmmmmmmmmmbzbmmmmmmbvbmmmmmmmxkkk5%M",
"M%%48klzbmmmmmbmmmmmbccmmmmmmmmmmmmmmmmmmmmmmmmblcmmmmmnmxkky4%M",
"M%4akkzbmmmmbmmmmmmmmbbmmmmbmmmmmmmmmmmmmmmnmmmnbbmmmmmmmxky4**M",
"M%5kkkzmbccmmmmmmmmmmmmmmmmmmmmmbmmmmmmmmmmmmnmmmmmmmmmmnxky=*=M",
"M%5kkacbmccmmmmmmmmmmmmmmmmnmmmmmmmmmnmmmmmmmmmmmmmmmmmmmzky4**M",
"M%5kkkzbmmmmmmmmmmmmmmmmmmmmmmmmmmmmmmmmmmmmmmmmmmmmmmmmmcky=*=M",
"M%5kkkkzbmmmmmmmmmmmmmnmmmmmmmnmmmmmmmmnmnmmmmmmmmmmmmmmmbcy4%%M",
"M%=5akkkbmmmmmmmmmmmmmmmmmmmmmmmmmmmmmmmmmmmnmmmmmmmmmmmmmcy=%*M",
"M**4akkkbmmmmmmmmmnmmmmmmmmmmmmmmmmmmmmnmmmmmmmmmmmmmmmmmmvy4==M",
"M**=akklbmmmmmmbmmmmmmmmmnmmmmmmmmmmmmmmmmmmmmmmmmmmmmmmmmca=**M",
"M=*4akkzbmmmmmmbnmmmmmmmmmmmmmmmmmmmmmmmmmmmmmmmmmmmmbmmmcky=%%M",
"M=%=akakvmmmmmvcbmmmmmmmnmmmmnmmmmmmmmmnmmnmmmmmmmmbcbmmmzkay4*M",
"M==5akkcmmmmmmvcbmmmmmmmmmmmmmmmmmmmmmmmmmmmmmmnmmmbxvmmmxkkk5%M",
"M%5kkaxmmmmmmmbmmmmmmmnmnmmmmmmmmmmmmmmmmmmmmmmmmmmmnnmmmzkkk5%M",
"M%5kkkxmmmmmmmmmmmmmmmmmmmmmmmmmmmmmmnmmmmmnmmmmmmmmmmmmnzkkk5%M",
"M%5kkkxmmmmmmmmmmmmmmmmmmmmnmmmmmmmmmmmmmmmmmmmnmmmnmmmmmbzkk5%M",
"M%5kkkxmmmmmmmmmmnmmmmmmmmmmmmmmmmmmmmmmmmnmmmmmmmmmmmmmmmvkk5%M",
"M%5kkkcbbbmmmmmmmmmmnmmmmmmmmmmnnmnmmmmmmmmmmmmmmmmmmmmmmmcky4%M",
"M*4lkcmbzcmmmmmmmnnnmmmmmmmmmmmmmmmmmbmmmmmmmmmmmmmmmmmmmmca4=*M",
"M==6ybmmcbmmmmmmmnvcbmmnnmmmmnmmmmnmmccmmmmmmmmmbmmmmmmmmmvy=**M",
"M**=ycmmmmmnmmmmmmvxnnmmmmmmmmmmmmmmbccnmmmmmmmmmmmmmvbmmmba=*=M",
"M**=acbmmmmmmmmmmmmmmnmmmbbmmmmmmmmmmmmmmmmmmmmmmmmmmxxmmmcy4**M",
"M**4ylcmmmmmmmmmmmmmmmmmmxxmmmmmmmmmmmmmmmmmmmmmmmmmmbbmmmva=**M",
"M=*=yklbmmmmmmmmmmmmmmmmmbbmmmmmmmmmmmmmmmmmmmmmmmmmmmmmmcla84*M",
"M%=7akxmmmmmmmmmbmmmmmmmmmnnmmnnvvmmmmmmbmmmmmmmmmmmmmmmmzkkk5%M",
"M%4ykkxmmmmbmbmmmmmmmmmmmmmnmmmbzcmmmmmmmmmmmmmmmbbmmmmmmzkkk5%M",
"M**4akxmmmbzbmmmmmmmmmmmmmmmmmmnbbmmmmmmmmmmmmmmmxcmmmmmmxykk4*M",
"M*48aazmmmbcbmmmmmmmmmmmmnmmmmmmmmmmmmmmmmmmmmmmmvcmmmmmmxkkk5*M",
"M%5kklvmmmmmmmmmmmmmmmmmmmmmmmmmmmmmmmmmmmbmmmmmmmmmmmmmmzlk74*M",
"M%5kkcbbmmmmmmmmmmmmmmmmmmmnmnmmmmmmmmmmmmmmmmmmmmmmmmmmbzky=**M",
"M*5kklllbmnmmnnbmmmmmmmmmmmnnnnnmmmmmmmmmmmmmmmmmmmmbmmbzkky4**M",
"M*=6akkkzvmbcxxzzbmmmmmmmmbxxxxxxzcmmmmmmmmmmmmbmmmbczclkkky=**M",
"M***88kkkzcckkkkkzvcccvcccxkkkakkklcvcccbcccmbccccvckkakkkk7=**M",
"M&&=*7kkkkkkkkkkklkkkkkkkkkkkkkkkkkkkklkkkklbzkkkkkkkkkkkk7**&&M",
"M.:%==6kkkkkkkkkkkkkkkkkkkkkkkkkkkkkkkklkkkkklkkkkkkkkkkk6=**:.M",
"M X:%*=65yly64455556kky555545556ylkk6446ylllkl85464455555=*=:X M",
"M.o#-<>%%5y6*&<<,<,=6y4**><<<<<,6888,<,<6888886-<<<,*****,,-#o.M",
"M.o9##;&&&&&&;####;>&&%&&;#@###1,=>,1##1,&>=>&<####1,&&&&;##9+.M",
"M.+0009@@@@@@999992@@@@@@29999991@@23q33111@@@29999311@@@2990+.M",
"M.+0tfe##9#990ttfq93333339qffq9933333egt3333333ftte9333999qt0+.M",
"M.+0ggfetqqe0tgggfqeqeqeeqqggfqeeeqwqeggeewqeqeggggeeeq0qqfg0+.M",
"M.+0ggggggggqfgggggggggggqeggggggggfqfgggggggqegggggggt0gggg0+.M",
"M.oqgggggggf0fgggggggggggqegggggggggqfgggggggeqgggggggf0gggg9+ M",
"MM$qgggggggg0fgggggggggggeqggggggggfqegggggggeegggggggf0gggg0$MM",
"MMM9egggggggqfgggggggggggeegggggggggqfgggggggeqgggggggf0fggt0MMM",
"MMMq9eggggggqtgggggggggggqqggggfgfgfqfgggggggqqgggggggf0gge90MMM",
"MMMM9qegggf099egggfqqfgggeegggfq0q0q3fggggggge9qqqq0ggt0gt00MMMM",
"MMMMM90eqeq0sr0qeeq9qqqrjrqqeeq930009qqtjhgggq9999rst0q0q00MMMMM",
"MMMMMMq9uwepsrq9999q9q90spr099qrqq3q00wpsifff0wuq9rsiw0000MMMMMM",
"MMMMMMMqvurmw099q9999999qdd099umw90000uve999q0uvw99evu000MMMMMMM"
};
