/* XPM */
static char *result[] = {
/* columns rows colors chars-per-pixel */
"64 64 216 2 ",
"   c black",
".  c #010101",
"X  c #020202",
"o  c gray1",
"O  c #040404",
"+  c gray2",
"@  c #060606",
"#  c #070707",
"$  c gray3",
"%  c #090909",
"&  c gray4",
"*  c #0B0B0B",
"=  c #0C0C0C",
"-  c gray5",
";  c #0E0E0E",
":  c gray6",
">  c #101010",
",  c #111111",
"<  c gray7",
"1  c #131313",
"2  c gray8",
"3  c #151515",
"4  c #161616",
"5  c gray9",
"6  c #181818",
"7  c #191919",
"8  c gray10",
"9  c #1B1B1B",
"0  c gray11",
"q  c #1D1D1D",
"w  c gray12",
"e  c #202020",
"r  c gray13",
"t  c #222222",
"y  c #232323",
"u  c #252525",
"i  c gray15",
"p  c gray16",
"a  c #2A2A2A",
"s  c gray17",
"d  c gray18",
"f  c gray19",
"g  c #313131",
"h  c #323232",
"j  c gray20",
"k  c #343434",
"l  c gray21",
"z  c #373737",
"x  c gray22",
"c  c #393939",
"v  c #3A3A3A",
"b  c gray23",
"n  c #3C3C3C",
"m  c gray24",
"M  c #3E3E3E",
"N  c #3F3F3F",
"B  c gray25",
"V  c #414141",
"C  c gray26",
"Z  c #434343",
"A  c #444444",
"S  c gray27",
"D  c #464646",
"F  c gray28",
"G  c #484848",
"H  c #494949",
"J  c gray29",
"K  c #4B4B4B",
"L  c #4C4C4C",
"P  c gray30",
"I  c gray31",
"U  c #505050",
"Y  c #515151",
"T  c gray32",
"R  c #535353",
"E  c gray33",
"W  c #555555",
"Q  c #565656",
"!  c gray34",
"~  c #585858",
"^  c gray35",
"/  c #5B595A",
"(  c #5A5A5A",
")  c #5B5B5B",
"_  c gray36",
"`  c #5D5D5D",
"'  c #5C5E5D",
"]  c #606060",
"[  c gray38",
"{  c #636061",
"}  c #626262",
"|  c gray39",
" . c #646464",
".. c #656565",
"X. c gray40",
"o. c #676767",
"O. c #686868",
"+. c DimGray",
"@. c #6A6A6A",
"#. c gray42",
"$. c #6D6D6D",
"%. c gray43",
"&. c #726F70",
"*. c gray44",
"=. c #717171",
"-. c #727272",
";. c gray45",
":. c #747474",
">. c gray46",
",. c #767676",
"<. c #777777",
"1. c gray47",
"2. c #797979",
"3. c gray48",
"4. c #7B7B7B",
"5. c #7C7C7C",
"6. c gray49",
"7. c #7E7E7E",
"8. c #7F8080",
"9. c #808080",
"0. c #818181",
"q. c gray51",
"w. c #838383",
"e. c #848484",
"r. c gray52",
"t. c #868686",
"y. c gray53",
"u. c #888888",
"i. c #898989",
"p. c gray54",
"a. c #8B8B8B",
"s. c #8C898A",
"d. c gray55",
"f. c #8D8D8D",
"g. c #8E8E8E",
"h. c gray56",
"j. c #909090",
"k. c gray57",
"l. c #929292",
"z. c #929393",
"x. c #939393",
"c. c gray58",
"v. c #959595",
"b. c #959696",
"n. c gray59",
"m. c #979797",
"M. c #989898",
"N. c gray60",
"B. c #989A99",
"V. c #9A9A9A",
"C. c #9B9B9B",
"Z. c gray61",
"A. c #9C9D9D",
"S. c #9D9D9D",
"D. c gray62",
"F. c #9F9F9F",
"G. c #AA959C",
"H. c #A0A0A0",
"J. c gray63",
"K. c #A2A2A2",
"L. c gray64",
"P. c #A4A4A4",
"I. c #A5A5A5",
"U. c gray65",
"Y. c #A7A7A7",
"T. c #AAA7A8",
"R. c #AFA7AA",
"E. c #A7A9A8",
"W. c gray66",
"Q. c #A9A8A8",
"!. c #A9A9A9",
"~. c #AAA8A9",
"^. c #ABA8A9",
"/. c #AAA9A9",
"(. c #A8AAA9",
"). c #A9AAA9",
"_. c #A9AAAA",
"`. c #A9ABAA",
"'. c #A9ABAB",
"]. c #AAAAAA",
"[. c #ABAAAA",
"{. c gray67",
"}. c #ADA8AA",
"|. c #ACA9AA",
" X c #AEA9AB",
".X c #AFAAAB",
"XX c #AEAAAC",
"oX c #ABACAC",
"OX c #ACACAC",
"+X c gray68",
"@X c #AEACAD",
"#X c #AEAEAE",
"$X c #AFAFAF",
"%X c #B4A7AB",
"&X c #BCA3AB",
"*X c #B0A9AB",
"=X c #B3A8AC",
"-X c #B6ABAF",
";X c #BFADB3",
":X c gray69",
">X c #C3AEB5",
",X c #C9B1B9",
"<X c #D0B1BC",
"1X c #D5B2BE",
"2X c #D7B2BE",
"3X c #D2B4BE",
"4X c #D5B5C0",
"5X c #DAB5C1",
"6X c #DCB6C3",
"7X c #DFB8C5",
"8X c #EBBACA",
"9X c #ECB8C9",
"0X c #EDB8CA",
"qX c #FEBBD2",
"wX c #FEBDD4",
"eX c None",
/* pixels */
"eXeXeXeXeXeXeXeXeXeXeXeXeXeXeXeXeXeXeXeXeXeXeXeXeXeXeXeXeXeXeXeXeXeXeXeXeXeXeXeXeXeXeXeXeXeXeXeXeXeXeXeXeXeXeXeXeXeXeXeXeXeXeXeX",
"eXeXeXeXeXeXeXeXeXeXeXeXeXeXeXeXeXeXeXeXeXeXeXeXeXeXeXeXeXeXeXeXeXeXeXeXeXeXeXeXeXeXeXeXeXeXeXeXeXeXeXeXeXeXeXeXeXeXeXeXeXeXeXeX",
"eXeXeXeXeXeXeXeXeXeXeXeXeXeXeXeXeXeXeXeXeXeXeXeXeXeXeXeXeXeXeXeXeXeXeXeXeXeXeXeXeXeXeXeXeXeXeXeXeXeXeXeXeXeXeXeXeXeXeXeXeXeXeXeX",
"eXeXeXeXeXeXeXeXeXeXeXeXeXeXeXeXeXeXeXeXeXeXeXeXeXeXeXeXeXeXeXeXeXeXeXeXeXeXeXeXeXeXeXeXeXeXeXeXeXeXeXeXeXeXeXeXeXeXeXeXeXeXeXeX",
"eXeXeXeXeXeXeXeXeXeXeXeXeXeXeXeXeXeXeXeXeXeXeXeXeXeXeXeXeXeXeXeXeXeXeXeXeXeXeXeXeXeXeXeXeXeXeXeXeXeXeXeXeXeXeXeXeXeXeXeXeXeXeXeX",
"eXeXeXeXeXeXeXeXeXeXeXeXeXeXeXeXeXeXeXeXeXeXeXeXeXeXeXeXeXeXeXeXeXeXeXeXeXeXeXeXeXeXeXeXeXeXeXeXeXeXeXeXeXeXeXeXeXeXeXeXeXeXeXeX",
"eXeXeXeXeXeXeXeXeXeXeXeXeXeXeXeXeXeXeXeXeXeXeXeXeXeXeXeXeXeXeXeXeXeXeXeXeXeXeXeXeXeXeXeXeXeXeXeXeXeXeXeXeXeXeXeXeXeXeXeXeXeXeXeX",
"eXeXeXeXeXeXeXeXeXeXeXeXeXeXeXeXeXeXeXeXeXeXeXeXeXeXeXeXeXeXeXeXeXeXeXeXeXeXeXeXeXeXeXeXeXeXeXeXeXeXeXeXeXeXeXeXeXeXeXeXeXeXeXeX",
"eXeXeXeXeXeXeXeXeXeXeXeXeXeXeXeXeXeXeXeXeXeXeXeXeXeXeXeXeXeXeXeXeXeXeXeXeXeXeXeXeXeXeXeXeXeXeXeXeXeXeXeXeXeXeXeXeXeXeXeXeXeXeXeX",
"eXeXeXeXeXeXeXeXeXeXeXeXeXeXeXeXeXeXeXeXeXeXeXeXeXeXeXeXeXeXeXeXeXeXeXeXeXeXeXeXeXeXeXeXeXeXeXeXeXeXeXeXeXeXeXeXeXeXeXeXeXeXeXeX",
"eXeXeXeXeXeXeXeXeXeXeXeXeXeXeXeXeXeXeXeXeXeXeXeXeXeXeXeXeXeXeXeXeXeXeXeXeXeXeXeXeXeXeXeXeXeXeXeXeXeXeXeXeXeXeXeXeXeXeXeXeXeXeXeX",
"eXeXeXeXeXeXeXeXeXeXeXeXeXeXeXeXeXeXeXeXeXeXeXeXeXeXeXeXeXeXeXeX- eXeXeXeXeXeXeXeXeXeXeXeXeXeXeXeX; eXeXeXeXeXeXeXeXeXeXeXeXeXeX",
"eXeXeXeXeXeXeXeXeXeXeXeXeXeXeXeXeXeXeXeXeXeXeXeXeXeXeXeXeXeXeXeX  $ eXeXeXeXeXeXeXeXeXeXeXeXeXeX+ X eXeXeXeXeXeXeXeXeXeXeXeXeXeX",
"eXeXeXeXeXeXeXeXeXeXeXeXeXeXeXeXeXeXeXeXeXeXeXeXeXeXeXeXeXeXeXB x b eXeXeXeXeXeXeXeXeXeXeXeXeXeXb v V eXeXeXeXeXeXeXeXeXeXeXeXeX",
"eXeXeXeXeXeXeXeXeXeXeXeXeXeXeXeXeXeXeXeXeXeXeXeXeXeXeXeXeX; X ( {.p.> % eXeXeXeXeXeXeXeXeXeX+ e V.U.B X 7 eXeXeXeXeXeXeXeXeXeXeX",
"eXeXeXeXeXeXeXeXeXeXeXeXeXeXeXeXeXeXeXeXeXeXeXeXeXeXeXeXeX&   ^ #Xd.1 - eXeXeXeXeXeXeXeXeXeX$ t Z.!.M   5 eXeXeXeXeXeXeXeXeXeXeX",
"eXeXeXeXeXeX: = = : eXeXeXeXeXeXeXeXeXeXeXeXeXeXeXeXeXeXeX&   ^ +Xm.P S w * - - - - - - = p S Q J.W.M   5 eXeXeXeXeXeXeXeXeXeXeX",
"eXeXeXeXeXeXo     o eXeXeXeXeXeXeXeXeXeXeXeXeXeXeXeXeXeXeX*   ( +XN._ Y 2   .   . .       r W | K.W.N   8 eXeXeXeXeXeXeXeXeXeXeX",
"eXeXeXeX< H o.....X.D < eXeXeXeXeXeXeXeXeXeXeXeXeXeXeX5 9 k h *.{.K.u.q.D g J X.) l h j g T t.d.U.!.7...Q 5 eXeXeXeXeXeXeXeXeXeX",
"eXeXeX3   L +XOXOXOXS   3 eXeXeXeXeXeXeXeXeXeXeXeXeXeX# $ F Q 9.].!.].Y.+.R 5.#XV.( E W R >.{.].!.!.{.$X+.. & eXeXeXeXeXeXeXeXeX",
"eXeXeX3   K ].!.!.!.A   3 eXeXeXeXeXeXeXeXeXeXeXeXeXeX@ & ~ @.p.].!.!.U.1.O.t.].Z.$.+.@.O.0.!.!.!.!.!.OXo.. & eXeXeXeXeXeXeXeXeX",
"eXeXeX2   K {.!.!.].A   3 eXeXeXeXeXeXeXeXeXeXeXeXeXeX+ : p.Y.W.!.!.!.!.U.U.W.!.W.U.U.U.U.Y.!.!.!.!.!.OXo.  & eXeXeXeXeXeXeXeXeX",
"eXeXeX2   K Y.I.L.P.F O 6 eXeXeXeXeXeXeXeXeXeXeXeXeXeX% < f.{.!.~.Q.P.L.W.!.!.!.Y.L.L.Y.!.!.!.W.P.L.Y.OX@.% 1 eXeXeXeXeXeXeXeXeX",
"eXeXeX2   f #.} k d n eXeXeXeXeXeXeX= = = = = = - = w B H m.].!.'.z.l j g.{.!.].h.k f y.{.!.].n.x d 8.oXB.0.1.t - eXeXeXeXeXeXeX",
"eXeXeX2   u E G %   eXeXeXeXeXeXeX,                 3 Y ) V.].~.}.s.& @ w.{.].+Xy.# X 5.#X].{.g.-   &..X}.@Xm.4 X eXeXeXeXeXeXeX",
"eXeXeX3   v q.=., X eXeXeXeXeXeX8 T ) P d f Y ( V s C 6.w.K.).;X2X&X{ ' m.{.r.W ~ ( ( ~ E >.].A.[ / G.4X>X}.b.5 . eXeXeXeXeXeXeX",
"eXeXeX3   P #Xn.3 X eXeXeXeXeX$ X *.:Xx.~ ) C.+X3.R #.Y.].!.T.1XqX8X-X{._.OX]   u L.W.g   B ).`.{.XX7XwX5X|.b.4 . eXeXeXeXeXeXeX",
"eXeXeX3   S C.y.2 . eXeXeXeXeXs u 4.+Xk.Q ( M.{.2.T @.I.!.!.T.,X9X6X*X^.!.{.*.t C L.U.K w ! !.(.!.^.3X0X<X].b.4 . eXeXeXeXeXeXeX",
"eXeXeX2   p _ U =   # % $ @ 6 a.H.U.{.k.Q ^ M.{.2.T +.U.!.!.E.[.%X*X(././.!.P.D.J.W.!.J.D.L.!.(.!.~. X=XR.[.n.4 . eXeXeXeXeXeXeX",
"eXeXeX7 @ p T G 2 * + . + & 9 x.{.!.].k.( ` N.].4.Q $.U.].!.!.!.!.!.!.!.!.!.!.].].!.!.!.].!.!.!.!.!.!.!.!.].n.4 . eXeXeXeXeXeXeX",
"eXeXeXeXeXd 4 u 3.y.z   k r.i.P.!.!.!.L.n.M.I.!.F.n.C.W.!.!.!.!.!.!.!.!.!.!.!.!.!.!.!.!.!.!.!.!.!.!.!.!.!.].n.4 . eXeXeXeXeXeXeX",
"eXeXeXeXeXeX  6 N.+XS   V {.{.!.!.!.!.!.].].!.!.].].].!.!.!.!.!.!.!.!.!.!.!.!.!.!.!.!.!.!.!.!.!.!.!.!.!.!.{.n.5 . eXeXeXeXeXeXeX",
"eXeXeXeXeXeX. 6 m.{.S   V !.!.!.!.!.!.!.!.!.!.!.!.!.!.!.!.!.!.!.!.!.!.!.!.!.!.!.!.!.!.!.!.!.!.!.!.!.!.!.P.S.p.3 . eXeXeXeXeXeXeX",
"eXeXeXeXeXeX. 6 M.OXA   B !.!.!.!.!.!.!.!.!.!.!.!.!.!.!.!.!.!.!.!.!.!.!.!.!.!.!.!.!.!.!.!.!.!.!.!.!.!.].S.f.5.1 . eXeXeXeXeXeXeX",
"eXeXeXeXeXeX= y y.x.L 6 Y !.!.!.!.!.!.!.!.!.!.!.!.!.!.!.!.!.!.!.!.!.!.!.!.!.!.!.!.!.!.!.!.!.!.!.!.!.!.].S.f.5.1 . eXeXeXeXeXeXeX",
"eXeXeXeXeXeXeXeXq 3 O.Z.F.!.!.!.!.!.!.!.!.!.!.!.!.!.!.!.!.!.!.!.!.!.!.!.!.!.!.!.!.!.!.!.!.!.!.!.!.!.!.!.S.f.5.1 . eXeXeXeXeXeXeX",
"eXeXeXeXeXeXeXeX$   #.+X].!.!.!.!.!.!.!.!.!.!.!.!.!.!.!.!.!.!.!.!.!.!.!.!.!.!.!.!.!.!.!.!.!.!.!.!.!.!.!.Z.a.3.1 . eXeXeXeXeXeXeX",
"eXeXeXeXeXeXeXeX% . @.OX!.!.!.!.!.!.!.!.!.!.!.!.!.!.!.!.!.!.!.!.!.!.!.!.!.!.!.!.!.!.!.!.!.!.!.!.!.!.C.v.0. .^ ; X eXeXeXeXeXeXeX",
"eXeXeXeXeXeXeXeX& . @.OX!.!.!.!.!.!.!.!.!.!.!.!.!.!.!.!.!.!.!.!.!.!.!.!.!.!.!.!.!.!.!.!.!.!.!.!.!.!.v.d.>.E J = X eXeXeXeXeXeXeX",
"eXeXeXeXeXeXeXeX& . @.OX!.!.!.!.!.!.!.!.!.!.!.!.!.!.!.!.!.!.!.!.!.!.!.!.!.!.!.!.!.!.!.!.!.!.!.!.!.!.n.f.,.W K = X eXeXeXeXeXeXeX",
"eXeXeXeXeXeXeXeX& . #.+X].!.!.!.!.!.!.!.!.!.!.!.!.!.!.!.!.!.!.!.!.!.!.!.!.!.!.!.!.].!.!.!.!.!.!.!.!.n.d.,.W K = o eXeXeXeXeXeXeX",
"eXeXeXeXeXeXeXeX& . } D.J.!.!.!.!.!.!.!.!.!.!.!.!.!.!.!.!.!.!.!.!.!.!.!.!.!.!.!.W.I.P.W.!.!.!.W.I.P.v.f.,.W K * X eXeXeXeXeXeXeX",
"eXeXeXeXeXeXeXeX&   v _ 1.!.!.!.!.!.!.!.!.!.!.!.!.!.!.!.!.!.!.!.!.!.!.!.!.!.!.!.L.h.g.J.!.!.!.P.k.g.f.f.,.W K * X eXeXeXeXeXeXeX",
"eXeXeXeXeXeXeXeX- O l E -.W.!.!.!.!.!.!.!.!.!.!.!.!.!.!.!.!.!.!.!.!.!.!.!.!.!.!.K.f.d.J.!.!.!.P.g.d.d.f.>.E K : @ eXeXeXeXeXeXeX",
"eXeXeXeXeXeXeXeXeXeXd w M =.<.J.!.!.!.!.!.!.!.!.!.!.!.!.!.!.!.!.!.!.!.!.!.].J.n.c.f.f.J.].K.n.c.f.d.:.+.K w i eXeXeXeXeXeXeXeXeX",
"eXeXeXeXeXeXeXeXeXeX8   e E ` D.{.].!.].].{.{.{.].!.!.].].!.!.!.!.!.!.!.].{.S.a.d.d.f.J.].D.d.d.f.f.O.Q j   & eXeXeXeXeXeXeXeXeX",
"eXeXeXeXeXeXeXeXeXeXeX, a b Z q.h.F.!.J.h.g.g.g.D.].L.h.j.P.!.!.!.!.!.W.v.g.f.a.g.v.n.L.].F.f.i.5.3.Y v h > 6 eXeXeXeXeXeXeXeXeX",
"eXeXeXeXeXeXeXeXeXeXeXeXeX+ & J ~ p.{.j.~ Q ! Q t.OXv.^ _ C.{.].].].].Y.@.W %.d.l.W.].].{.F.f.e.) Q e . 8 eXeXeXeXeXeXeXeXeXeXeX",
"eXeXeXeXeXeXeXeXeXeXeXeXeX= < A L y.OXf.P K K J 0.OXx.I U u.n.n.n.v.n.l.` H O.d.g.v.n.v.n.l.f.0.Y K i % eXeXeXeXeXeXeXeXeXeXeXeX",
"eXeXeXeXeXeXeXeXeXeXeXeXeXeXeX4 ; ;.#X5.> = * = +.#Xe.2 - 4 5 5 5 5 5 4 : & D h.:.w 4 5 3 S g.1.6 ; eXeXeXeXeXeXeXeXeXeXeXeXeXeX",
"eXeXeXeXeXeXeXeXeXeXeXeXeXeXeX& o *.$X3.# X X o X.$Xw.& . X X . . . . o .   V j.*.* . .   x g.<.; o eXeXeXeXeXeXeXeXeXeXeXeXeXeX",
"eXeXeXeXeXeXeXeXeXeXeXeXeXeXeX& o h K K eXeXeXeXJ J c + + r eXeXeXeXeXeX*   q m N eXeXeXeXM N k # O eXeXeXeXeXeXeXeXeXeXeXeXeXeX",
"eXeXeXeXeXeXeXeXeXeXeXeXeXeXeX& .     < eXeXeXeX4     . @ eXeXeXeXeXeXeX- . .   * eXeXeXeXeXo   . O eXeXeXeXeXeXeXeXeXeXeXeXeXeX",
"eXeXeXeXeXeXeXeXeXeXeXeXeXeXeX0 3 3 3 eXeXeXeXeXeX3 3 3 7 eXeXeXeXeXeXeXeX2 3 3 eXeXeXeXeXeX5 3 3 4 eXeXeXeXeXeXeXeXeXeXeXeXeXeX",
"eXeXeXeXeXeXeXeXeXeXeXeXeXeXeXeXeXeXeXeXeXeXeXeXeXeXeXeXeXeXeXeXeXeXeXeXeXeXeXeXeXeXeXeXeXeXeXeXeXeXeXeXeXeXeXeXeXeXeXeXeXeXeXeX",
"eXeXeXeXeXeXeXeXeXeXeXeXeXeXeXeXeXeXeXeXeXeXeXeXeXeXeXeXeXeXeXeXeXeXeXeXeXeXeXeXeXeXeXeXeXeXeXeXeXeXeXeXeXeXeXeXeXeXeXeXeXeXeXeX",
"eXeXeXeXeXeXeXeXeXeXeXeXeXeXeXeXeXeXeXeXeXeXeXeXeXeXeXeXeXeXeXeXeXeXeXeXeXeXeXeXeXeXeXeXeXeXeXeXeXeXeXeXeXeXeXeXeXeXeXeXeXeXeXeX",
"eXeXeXeXeXeXeXeXeXeXeXeXeXeXeXeXeXeXeXeXeXeXeXeXeXeXeXeXeXeXeXeXeXeXeXeXeXeXeXeXeXeXeXeXeXeXeXeXeXeXeXeXeXeXeXeXeXeXeXeXeXeXeXeX",
"eXeXeXeXeXeXeXeXeXeXeXeXeXeXeXeXeXeXeXeXeXeXeXeXeXeXeXeXeXeXeXeXeXeXeXeXeXeXeXeXeXeXeXeXeXeXeXeXeXeXeXeXeXeXeXeXeXeXeXeXeXeXeXeX",
"eXeXeXeXeXeXeXeXeXeXeXeXeXeXeXeXeXeXeXeXeXeXeXeXeXeXeXeXeXeXeXeXeXeXeXeXeXeXeXeXeXeXeXeXeXeXeXeXeXeXeXeXeXeXeXeXeXeXeXeXeXeXeXeX",
"eXeXeXeXeXeXeXeXeXeXeXeXeXeXeXeXeXeXeXeXeXeXeXeXeXeXeXeXeXeXeXeXeXeXeXeXeXeXeXeXeXeXeXeXeXeXeXeXeXeXeXeXeXeXeXeXeXeXeXeXeXeXeXeX",
"eXeXeXeXeXeXeXeXeXeXeXeXeXeXeXeXeXeXeXeXeXeXeXeXeXeXeXeXeXeXeXeXeXeXeXeXeXeXeXeXeXeXeXeXeXeXeXeXeXeXeXeXeXeXeXeXeXeXeXeXeXeXeXeX",
"eXeXeXeXeXeXeXeXeXeXeXeXeXeXeXeXeXeXeXeXeXeXeXeXeXeXeXeXeXeXeXeXeXeXeXeXeXeXeXeXeXeXeXeXeXeXeXeXeXeXeXeXeXeXeXeXeXeXeXeXeXeXeXeX",
"eXeXeXeXeXeXeXeXeXeXeXeXeXeXeXeXeXeXeXeXeXeXeXeXeXeXeXeXeXeXeXeXeXeXeXeXeXeXeXeXeXeXeXeXeXeXeXeXeXeXeXeXeXeXeXeXeXeXeXeXeXeXeXeX"
};
